<mxfile host="app.diagrams.net" modified="2021-09-25T15:54:11.202Z" agent="5.0 (Windows NT 10.0; Win64; x64) AppleWebKit/537.36 (KHTML, like Gecko) Chrome/93.0.4577.82 Safari/537.36" etag="43dGV9Az6wRich94AdFp" version="15.2.7" type="github">
  <diagram id="i9z5DV8Quiy5ul4YF9sL" name="Page-1">
    <mxGraphModel dx="1502" dy="603" grid="1" gridSize="10" guides="1" tooltips="1" connect="1" arrows="1" fold="1" page="1" pageScale="1" pageWidth="827" pageHeight="1169" math="0" shadow="0">
      <root>
        <mxCell id="0" />
        <mxCell id="1" parent="0" />
        <mxCell id="_qh5CtxLGN5EkOG5CYsD-3" value="" style="edgeStyle=orthogonalEdgeStyle;rounded=0;orthogonalLoop=1;jettySize=auto;html=1;" edge="1" parent="1" source="_qh5CtxLGN5EkOG5CYsD-1" target="_qh5CtxLGN5EkOG5CYsD-2">
          <mxGeometry relative="1" as="geometry" />
        </mxCell>
        <mxCell id="_qh5CtxLGN5EkOG5CYsD-1" value="Actor" style="shape=umlActor;verticalLabelPosition=bottom;verticalAlign=top;html=1;outlineConnect=0;" vertex="1" parent="1">
          <mxGeometry x="60" y="90" width="30" height="60" as="geometry" />
        </mxCell>
        <mxCell id="_qh5CtxLGN5EkOG5CYsD-5" value="" style="edgeStyle=orthogonalEdgeStyle;rounded=0;orthogonalLoop=1;jettySize=auto;html=1;" edge="1" parent="1" source="_qh5CtxLGN5EkOG5CYsD-2" target="_qh5CtxLGN5EkOG5CYsD-4">
          <mxGeometry relative="1" as="geometry" />
        </mxCell>
        <mxCell id="_qh5CtxLGN5EkOG5CYsD-2" value="上传银行流水" style="ellipse;whiteSpace=wrap;html=1;verticalAlign=top;" vertex="1" parent="1">
          <mxGeometry x="125" y="90" width="120" height="60" as="geometry" />
        </mxCell>
        <mxCell id="_qh5CtxLGN5EkOG5CYsD-7" value="" style="edgeStyle=orthogonalEdgeStyle;rounded=0;orthogonalLoop=1;jettySize=auto;html=1;" edge="1" parent="1" source="_qh5CtxLGN5EkOG5CYsD-4" target="_qh5CtxLGN5EkOG5CYsD-6">
          <mxGeometry relative="1" as="geometry" />
        </mxCell>
        <mxCell id="_qh5CtxLGN5EkOG5CYsD-9" value="" style="edgeStyle=orthogonalEdgeStyle;rounded=0;orthogonalLoop=1;jettySize=auto;html=1;" edge="1" parent="1" source="_qh5CtxLGN5EkOG5CYsD-4" target="_qh5CtxLGN5EkOG5CYsD-8">
          <mxGeometry relative="1" as="geometry" />
        </mxCell>
        <mxCell id="_qh5CtxLGN5EkOG5CYsD-4" value="银行流水" style="whiteSpace=wrap;html=1;verticalAlign=top;" vertex="1" parent="1">
          <mxGeometry x="325" y="90" width="120" height="60" as="geometry" />
        </mxCell>
        <mxCell id="_qh5CtxLGN5EkOG5CYsD-6" value="客户账户" style="whiteSpace=wrap;html=1;verticalAlign=top;" vertex="1" parent="1">
          <mxGeometry x="525" y="90" width="120" height="60" as="geometry" />
        </mxCell>
        <mxCell id="_qh5CtxLGN5EkOG5CYsD-8" value="可批量更改&lt;br&gt;对应到相应的客户账户" style="ellipse;whiteSpace=wrap;html=1;verticalAlign=top;" vertex="1" parent="1">
          <mxGeometry x="325" y="230" width="120" height="60" as="geometry" />
        </mxCell>
      </root>
    </mxGraphModel>
  </diagram>
</mxfile>
